<svg width="360" height="53" viewBox="0 0 360 53" fill="none" xmlns="http://www.w3.org/2000/svg">
<rect width="360" height="53" rx="26.5" fill="#007AFF" fill-opacity="0.15"/>
<path d="M85.6143 34.1992V19.2891C85.6143 18.752 85.7467 18.3581 86.0117 18.1074C86.2767 17.8496 86.5918 17.7207 86.957 17.7207C87.2793 17.7207 87.6087 17.8138 87.9453 18L100.46 25.3154C100.904 25.5732 101.212 25.806 101.384 26.0137C101.563 26.2142 101.652 26.4577 101.652 26.7441C101.652 27.0234 101.563 27.2669 101.384 27.4746C101.212 27.6823 100.904 27.915 100.46 28.1729L87.9453 35.4883C87.6087 35.6745 87.2793 35.7676 86.957 35.7676C86.5918 35.7676 86.2767 35.6387 86.0117 35.3809C85.7467 35.123 85.6143 34.7292 85.6143 34.1992Z" fill="#007AFF"/>
<path d="M115.918 36.8418C113.995 36.8418 112.327 36.4316 110.914 35.6113C109.51 34.791 108.426 33.6198 107.66 32.0977C106.904 30.5664 106.525 28.7435 106.525 26.6289V26.6152C106.525 24.4915 106.908 22.6732 107.674 21.1602C108.439 19.638 109.524 18.4714 110.928 17.6602C112.331 16.8398 113.995 16.4297 115.918 16.4297C117.513 16.4297 118.935 16.7396 120.184 17.3594C121.432 17.9792 122.435 18.8314 123.191 19.916C123.948 20.9915 124.39 22.2311 124.518 23.6348L124.531 23.7578H120.512L120.457 23.5254C120.302 22.7962 120.024 22.1628 119.623 21.625C119.222 21.0872 118.707 20.6725 118.078 20.3809C117.458 20.0801 116.738 19.9297 115.918 19.9297C114.861 19.9297 113.945 20.1986 113.17 20.7363C112.395 21.2741 111.794 22.0443 111.365 23.0469C110.946 24.0404 110.736 25.2253 110.736 26.6016V26.6152C110.736 28.0007 110.946 29.1992 111.365 30.2109C111.794 31.2135 112.395 31.9883 113.17 32.5352C113.954 33.0729 114.87 33.3418 115.918 33.3418C116.711 33.3418 117.417 33.196 118.037 32.9043C118.666 32.6126 119.19 32.1934 119.609 31.6465C120.029 31.0905 120.325 30.4206 120.498 29.6367L120.525 29.5H124.545L124.531 29.6504C124.404 31.0449 123.957 32.2845 123.191 33.3691C122.435 34.4538 121.432 35.306 120.184 35.9258C118.935 36.5365 117.513 36.8418 115.918 36.8418ZM127.482 36.5V16.7715H131.61V33.0957H140.237V36.5H127.482ZM143.065 36.5V16.7715H147.194V36.5H143.065ZM159.632 36.8418C157.709 36.8418 156.041 36.4316 154.628 35.6113C153.225 34.791 152.14 33.6198 151.374 32.0977C150.618 30.5664 150.24 28.7435 150.24 26.6289V26.6152C150.24 24.4915 150.622 22.6732 151.388 21.1602C152.154 19.638 153.238 18.4714 154.642 17.6602C156.046 16.8398 157.709 16.4297 159.632 16.4297C161.227 16.4297 162.649 16.7396 163.898 17.3594C165.147 17.9792 166.149 18.8314 166.906 19.916C167.662 20.9915 168.104 22.2311 168.232 23.6348L168.245 23.7578H164.226L164.171 23.5254C164.016 22.7962 163.738 22.1628 163.337 21.625C162.936 21.0872 162.421 20.6725 161.792 20.3809C161.173 20.0801 160.452 19.9297 159.632 19.9297C158.575 19.9297 157.659 20.1986 156.884 20.7363C156.109 21.2741 155.508 22.0443 155.079 23.0469C154.66 24.0404 154.451 25.2253 154.451 26.6016V26.6152C154.451 28.0007 154.66 29.1992 155.079 30.2109C155.508 31.2135 156.109 31.9883 156.884 32.5352C157.668 33.0729 158.584 33.3418 159.632 33.3418C160.425 33.3418 161.132 33.196 161.751 32.9043C162.38 32.6126 162.904 32.1934 163.324 31.6465C163.743 31.0905 164.039 30.4206 164.212 29.6367L164.24 29.5H168.259L168.245 29.6504C168.118 31.0449 167.671 32.2845 166.906 33.3691C166.149 34.4538 165.147 35.306 163.898 35.9258C162.649 36.5365 161.227 36.8418 159.632 36.8418ZM175.161 30.6621V25.7949H175.42L182.653 16.7715H187.247L180 25.6855H179.194L175.161 30.6621ZM171.196 36.5V16.7715H175.325V36.5H171.196ZM182.817 36.5L176.487 27.1484L179.467 24.4414L187.752 36.5H182.817ZM204.577 36.8418C202.654 36.8418 200.986 36.4316 199.573 35.6113C198.169 34.791 197.085 33.6198 196.319 32.0977C195.563 30.5664 195.184 28.7435 195.184 26.6289V26.6152C195.184 24.4915 195.567 22.6732 196.333 21.1602C197.098 19.638 198.183 18.4714 199.587 17.6602C200.99 16.8398 202.654 16.4297 204.577 16.4297C206.172 16.4297 207.594 16.7396 208.842 17.3594C210.091 17.9792 211.094 18.8314 211.85 19.916C212.607 20.9915 213.049 22.2311 213.176 23.6348L213.19 23.7578H209.171L209.116 23.5254C208.961 22.7962 208.683 22.1628 208.282 21.625C207.881 21.0872 207.366 20.6725 206.737 20.3809C206.117 20.0801 205.397 19.9297 204.577 19.9297C203.52 19.9297 202.604 20.1986 201.829 20.7363C201.054 21.2741 200.453 22.0443 200.024 23.0469C199.605 24.0404 199.395 25.2253 199.395 26.6016V26.6152C199.395 28.0007 199.605 29.1992 200.024 30.2109C200.453 31.2135 201.054 31.9883 201.829 32.5352C202.613 33.0729 203.529 33.3418 204.577 33.3418C205.37 33.3418 206.076 33.196 206.696 32.9043C207.325 32.6126 207.849 32.1934 208.268 31.6465C208.688 31.0905 208.984 30.4206 209.157 29.6367L209.184 29.5H213.204L213.19 29.6504C213.063 31.0449 212.616 32.2845 211.85 33.3691C211.094 34.4538 210.091 35.306 208.842 35.9258C207.594 36.5365 206.172 36.8418 204.577 36.8418ZM216.14 36.5V16.7715H220.269V33.0957H228.896V36.5H216.14ZM231.724 36.5V16.7715H235.853V36.5H231.724ZM248.291 36.8418C246.368 36.8418 244.7 36.4316 243.287 35.6113C241.884 34.791 240.799 33.6198 240.033 32.0977C239.277 30.5664 238.899 28.7435 238.899 26.6289V26.6152C238.899 24.4915 239.281 22.6732 240.047 21.1602C240.813 19.638 241.897 18.4714 243.301 17.6602C244.705 16.8398 246.368 16.4297 248.291 16.4297C249.886 16.4297 251.308 16.7396 252.557 17.3594C253.805 17.9792 254.808 18.8314 255.565 19.916C256.321 20.9915 256.763 22.2311 256.891 23.6348L256.904 23.7578H252.885L252.83 23.5254C252.675 22.7962 252.397 22.1628 251.996 21.625C251.595 21.0872 251.08 20.6725 250.451 20.3809C249.831 20.0801 249.111 19.9297 248.291 19.9297C247.234 19.9297 246.318 20.1986 245.543 20.7363C244.768 21.2741 244.167 22.0443 243.738 23.0469C243.319 24.0404 243.109 25.2253 243.109 26.6016V26.6152C243.109 28.0007 243.319 29.1992 243.738 30.2109C244.167 31.2135 244.768 31.9883 245.543 32.5352C246.327 33.0729 247.243 33.3418 248.291 33.3418C249.084 33.3418 249.79 33.196 250.41 32.9043C251.039 32.6126 251.563 32.1934 251.982 31.6465C252.402 31.0905 252.698 30.4206 252.871 29.6367L252.899 29.5H256.918L256.904 29.6504C256.777 31.0449 256.33 32.2845 255.565 33.3691C254.808 34.4538 253.805 35.306 252.557 35.9258C251.308 36.5365 249.886 36.8418 248.291 36.8418ZM263.82 30.6621V25.7949H264.079L271.312 16.7715H275.905L268.659 25.6855H267.853L263.82 30.6621ZM259.855 36.5V16.7715H263.984V36.5H259.855ZM271.476 36.5L265.146 27.1484L268.126 24.4414L276.411 36.5H271.476Z" fill="#007AFF"/>
</svg>
