<svg width="171" height="21" viewBox="0 0 171 21" fill="none" xmlns="http://www.w3.org/2000/svg">
<path d="M9.91797 20.8418C7.99479 20.8418 6.32682 20.4316 4.91406 19.6113C3.51042 18.791 2.42578 17.6198 1.66016 16.0977C0.903646 14.5664 0.525391 12.7435 0.525391 10.6289V10.6152C0.525391 8.49154 0.908203 6.67318 1.67383 5.16016C2.43945 3.63802 3.52409 2.47135 4.92773 1.66016C6.33138 0.839844 7.99479 0.429688 9.91797 0.429688C11.513 0.429688 12.9349 0.739583 14.1836 1.35938C15.4323 1.97917 16.4349 2.83138 17.1914 3.91602C17.9479 4.99154 18.39 6.23112 18.5176 7.63477L18.5312 7.75781H14.5117L14.457 7.52539C14.3021 6.79622 14.0241 6.16276 13.623 5.625C13.222 5.08724 12.707 4.67253 12.0781 4.38086C11.4583 4.08008 10.7383 3.92969 9.91797 3.92969C8.86068 3.92969 7.94466 4.19857 7.16992 4.73633C6.39518 5.27409 5.79362 6.04427 5.36523 7.04688C4.94596 8.04036 4.73633 9.22526 4.73633 10.6016V10.6152C4.73633 12.0007 4.94596 13.1992 5.36523 14.2109C5.79362 15.2135 6.39518 15.9883 7.16992 16.5352C7.95378 17.0729 8.86979 17.3418 9.91797 17.3418C10.7109 17.3418 11.4173 17.196 12.0371 16.9043C12.666 16.6126 13.1901 16.1934 13.6094 15.6465C14.0286 15.0905 14.3249 14.4206 14.498 13.6367L14.5254 13.5H18.5449L18.5312 13.6504C18.4036 15.0449 17.957 16.2845 17.1914 17.3691C16.4349 18.4538 15.4323 19.306 14.1836 19.9258C12.9349 20.5365 11.513 20.8418 9.91797 20.8418ZM21.4816 20.5V0.771484H25.6105V17.0957H34.2374V20.5H21.4816ZM37.0647 20.5V0.771484H41.1936V20.5H37.0647ZM53.6322 20.8418C51.709 20.8418 50.041 20.4316 48.6283 19.6113C47.2246 18.791 46.14 17.6198 45.3744 16.0977C44.6179 14.5664 44.2396 12.7435 44.2396 10.6289V10.6152C44.2396 8.49154 44.6224 6.67318 45.388 5.16016C46.1537 3.63802 47.2383 2.47135 48.642 1.66016C50.0456 0.839844 51.709 0.429688 53.6322 0.429688C55.2272 0.429688 56.6491 0.739583 57.8978 1.35938C59.1465 1.97917 60.1491 2.83138 60.9056 3.91602C61.6621 4.99154 62.1042 6.23112 62.2318 7.63477L62.2455 7.75781H58.2259L58.1712 7.52539C58.0163 6.79622 57.7383 6.16276 57.3373 5.625C56.9362 5.08724 56.4212 4.67253 55.7923 4.38086C55.1726 4.08008 54.4525 3.92969 53.6322 3.92969C52.5749 3.92969 51.6589 4.19857 50.8841 4.73633C50.1094 5.27409 49.5078 6.04427 49.0795 7.04688C48.6602 8.04036 48.4505 9.22526 48.4505 10.6016V10.6152C48.4505 12.0007 48.6602 13.1992 49.0795 14.2109C49.5078 15.2135 50.1094 15.9883 50.8841 16.5352C51.668 17.0729 52.584 17.3418 53.6322 17.3418C54.4252 17.3418 55.1315 17.196 55.7513 16.9043C56.3802 16.6126 56.9043 16.1934 57.3236 15.6465C57.7429 15.0905 58.0391 14.4206 58.2123 13.6367L58.2396 13.5H62.2591L62.2455 13.6504C62.1179 15.0449 61.6712 16.2845 60.9056 17.3691C60.1491 18.4538 59.1465 19.306 57.8978 19.9258C56.6491 20.5365 55.2272 20.8418 53.6322 20.8418ZM69.1606 14.6621V9.79492H69.4204L76.6528 0.771484H81.2466L74.0005 9.68555H73.1938L69.1606 14.6621ZM65.1958 20.5V0.771484H69.3247V20.5H65.1958ZM76.8169 20.5L70.4868 11.1484L73.4673 8.44141L81.7524 20.5H76.8169ZM98.5769 20.8418C96.6537 20.8418 94.9857 20.4316 93.573 19.6113C92.1693 18.791 91.0847 17.6198 90.3191 16.0977C89.5626 14.5664 89.1843 12.7435 89.1843 10.6289V10.6152C89.1843 8.49154 89.5671 6.67318 90.3327 5.16016C91.0984 3.63802 92.183 2.47135 93.5866 1.66016C94.9903 0.839844 96.6537 0.429688 98.5769 0.429688C100.172 0.429688 101.594 0.739583 102.842 1.35938C104.091 1.97917 105.094 2.83138 105.85 3.91602C106.607 4.99154 107.049 6.23112 107.176 7.63477L107.19 7.75781H103.171L103.116 7.52539C102.961 6.79622 102.683 6.16276 102.282 5.625C101.881 5.08724 101.366 4.67253 100.737 4.38086C100.117 4.08008 99.3972 3.92969 98.5769 3.92969C97.5196 3.92969 96.6036 4.19857 95.8288 4.73633C95.0541 5.27409 94.4525 6.04427 94.0241 7.04688C93.6049 8.04036 93.3952 9.22526 93.3952 10.6016V10.6152C93.3952 12.0007 93.6049 13.1992 94.0241 14.2109C94.4525 15.2135 95.0541 15.9883 95.8288 16.5352C96.6127 17.0729 97.5287 17.3418 98.5769 17.3418C99.3698 17.3418 100.076 17.196 100.696 16.9043C101.325 16.6126 101.849 16.1934 102.268 15.6465C102.688 15.0905 102.984 14.4206 103.157 13.6367L103.184 13.5H107.204L107.19 13.6504C107.063 15.0449 106.616 16.2845 105.85 17.3691C105.094 18.4538 104.091 19.306 102.842 19.9258C101.594 20.5365 100.172 20.8418 98.5769 20.8418ZM110.14 20.5V0.771484H114.269V17.0957H122.896V20.5H110.14ZM125.724 20.5V0.771484H129.853V20.5H125.724ZM142.291 20.8418C140.368 20.8418 138.7 20.4316 137.287 19.6113C135.884 18.791 134.799 17.6198 134.033 16.0977C133.277 14.5664 132.899 12.7435 132.899 10.6289V10.6152C132.899 8.49154 133.281 6.67318 134.047 5.16016C134.813 3.63802 135.897 2.47135 137.301 1.66016C138.705 0.839844 140.368 0.429688 142.291 0.429688C143.886 0.429688 145.308 0.739583 146.557 1.35938C147.805 1.97917 148.808 2.83138 149.565 3.91602C150.321 4.99154 150.763 6.23112 150.891 7.63477L150.904 7.75781H146.885L146.83 7.52539C146.675 6.79622 146.397 6.16276 145.996 5.625C145.595 5.08724 145.08 4.67253 144.451 4.38086C143.831 4.08008 143.111 3.92969 142.291 3.92969C141.234 3.92969 140.318 4.19857 139.543 4.73633C138.768 5.27409 138.167 6.04427 137.738 7.04688C137.319 8.04036 137.109 9.22526 137.109 10.6016V10.6152C137.109 12.0007 137.319 13.1992 137.738 14.2109C138.167 15.2135 138.768 15.9883 139.543 16.5352C140.327 17.0729 141.243 17.3418 142.291 17.3418C143.084 17.3418 143.79 17.196 144.41 16.9043C145.039 16.6126 145.563 16.1934 145.982 15.6465C146.402 15.0905 146.698 14.4206 146.871 13.6367L146.899 13.5H150.918L150.904 13.6504C150.777 15.0449 150.33 16.2845 149.565 17.3691C148.808 18.4538 147.805 19.306 146.557 19.9258C145.308 20.5365 143.886 20.8418 142.291 20.8418ZM157.82 14.6621V9.79492H158.079L165.312 0.771484H169.905L162.659 9.68555H161.853L157.82 14.6621ZM153.855 20.5V0.771484H157.984V20.5H153.855ZM165.476 20.5L159.146 11.1484L162.126 8.44141L170.411 20.5H165.476Z" fill="#007AFF"/>
</svg>
