<svg width="1280" height="832" viewBox="0 0 1280 832" fill="none" xmlns="http://www.w3.org/2000/svg">
<rect width="1280" height="832" fill="black" fill-opacity="0.3"/>
<g filter="url(#filter0_f_1_2)">
<ellipse cx="641.5" cy="739" rx="452.5" ry="5" fill="black"/>
</g>
<path d="M236 193C236 178.088 248.088 166 263 166H1023C1037.91 166 1050 178.088 1050 193V715C1050 716.657 1048.66 718 1047 718H239C237.343 718 236 716.657 236 715V193Z" fill="#1A202C" stroke="#4A5568" stroke-width="2"/>
<path d="M240 192C240 179.85 249.85 170 262 170H1024C1036.15 170 1046 179.85 1046 192V698H240V192Z" fill="black"/>
<path d="M602.241 700.545V710H603.884V703.491H603.972L606.585 709.972H607.813L610.426 703.505H610.513V710H612.157V700.545H610.061L607.254 707.396H607.143L604.337 700.545H602.241ZM615.989 710.143C617.101 710.143 617.766 709.621 618.071 709.026H618.126V710H619.732V705.254C619.732 703.38 618.204 702.817 616.852 702.817C615.361 702.817 614.216 703.482 613.846 704.774L615.407 704.996C615.573 704.511 616.044 704.096 616.861 704.096C617.637 704.096 618.061 704.493 618.061 705.19V705.217C618.061 705.697 617.558 705.721 616.307 705.854C614.931 706.002 613.616 706.413 613.616 708.01C613.616 709.404 614.636 710.143 615.989 710.143ZM616.422 708.915C615.725 708.915 615.227 708.597 615.227 707.983C615.227 707.341 615.785 707.073 616.533 706.967C616.972 706.907 617.849 706.796 618.066 706.621V707.456C618.066 708.246 617.429 708.915 616.422 708.915ZM624.506 710.138C626.288 710.138 627.424 709.081 627.544 707.576H625.946C625.803 708.338 625.254 708.777 624.52 708.777C623.476 708.777 622.802 707.904 622.802 706.455C622.802 705.023 623.49 704.165 624.52 704.165C625.323 704.165 625.817 704.682 625.946 705.365H627.544C627.428 703.828 626.228 702.817 624.497 702.817C622.419 702.817 621.108 704.317 621.108 706.482C621.108 708.629 622.387 710.138 624.506 710.138ZM628.99 710H630.633V708.883H630.73C630.993 709.4 631.543 710.125 632.761 710.125C634.432 710.125 635.684 708.8 635.684 706.464C635.684 704.1 634.396 702.817 632.757 702.817C631.506 702.817 630.984 703.569 630.73 704.082H630.661V700.545H628.99V710ZM630.629 706.455C630.629 705.079 631.219 704.188 632.295 704.188C633.408 704.188 633.98 705.134 633.98 706.455C633.98 707.784 633.398 708.754 632.295 708.754C631.229 708.754 630.629 707.83 630.629 706.455ZM640.197 710.138C642.275 710.138 643.595 708.675 643.595 706.482C643.595 704.285 642.275 702.817 640.197 702.817C638.12 702.817 636.8 704.285 636.8 706.482C636.8 708.675 638.12 710.138 640.197 710.138ZM640.207 708.8C639.057 708.8 638.494 707.775 638.494 706.478C638.494 705.18 639.057 704.142 640.207 704.142C641.338 704.142 641.901 705.18 641.901 706.478C641.901 707.775 641.338 708.8 640.207 708.8ZM648.106 710.138C650.184 710.138 651.504 708.675 651.504 706.482C651.504 704.285 650.184 702.817 648.106 702.817C646.029 702.817 644.709 704.285 644.709 706.482C644.709 708.675 646.029 710.138 648.106 710.138ZM648.116 708.8C646.966 708.8 646.403 707.775 646.403 706.478C646.403 705.18 646.966 704.142 648.116 704.142C649.247 704.142 649.81 705.18 649.81 706.478C649.81 707.775 649.247 708.8 648.116 708.8ZM652.923 710H654.594V707.618L655.203 706.967L657.373 710H659.372L656.463 705.97L659.21 702.909H657.258L654.709 705.757H654.594V700.545H652.923V710ZM664.837 710L665.617 707.669H669.171L669.956 710H671.784L668.451 700.545H666.337L663.008 710H664.837ZM666.078 706.293L667.357 702.484H667.431L668.71 706.293H666.078ZM673.007 710H674.678V702.909H673.007V710ZM673.847 701.903C674.378 701.903 674.812 701.496 674.812 700.998C674.812 700.495 674.378 700.088 673.847 700.088C673.311 700.088 672.877 700.495 672.877 700.998C672.877 701.496 673.311 701.903 673.847 701.903ZM676.396 710H678.067V705.831C678.067 704.931 678.746 704.294 679.665 704.294C679.946 704.294 680.297 704.345 680.44 704.391V702.854C680.288 702.826 680.025 702.808 679.84 702.808C679.028 702.808 678.349 703.269 678.091 704.091H678.017V702.909H676.396V710Z" fill="#A0AEC0"/>
<path d="M137 717C137 715.895 137.895 715 139 715H1143C1144.1 715 1145 715.895 1145 717V721H137V717Z" fill="#A3ACB1"/>
<path d="M137 717C137 715.895 137.895 715 139 715H1143C1144.1 715 1145 715.895 1145 717V721H137V717Z" fill="url(#paint0_linear_1_2)"/>
<path d="M137 721H1145L1124.65 725.105C1098.61 730.355 1072.12 733 1045.57 733H234.909C205.724 733 176.627 729.806 148.137 723.475L137 721Z" fill="#647279"/>
<path d="M137 721H1145L1124.65 725.105C1098.61 730.355 1072.12 733 1045.57 733H234.909C205.724 733 176.627 729.806 148.137 723.475L137 721Z" fill="url(#paint1_linear_1_2)"/>
<path fill-rule="evenodd" clip-rule="evenodd" d="M567.033 715C567.547 718.351 565.052 721 573 721H710C717.948 721 715.453 718.351 715.967 715H567.033Z" fill="#96A1A8"/>
<path fill-rule="evenodd" clip-rule="evenodd" d="M567.033 715C567.547 718.351 565.052 721 573 721H710C717.948 721 715.453 718.351 715.967 715H567.033Z" fill="url(#paint2_linear_1_2)"/>
<defs>
<filter id="filter0_f_1_2" x="145" y="690" width="993" height="98" filterUnits="userSpaceOnUse" color-interpolation-filters="sRGB">
<feFlood flood-opacity="0" result="BackgroundImageFix"/>
<feBlend mode="normal" in="SourceGraphic" in2="BackgroundImageFix" result="shape"/>
<feGaussianBlur stdDeviation="22" result="effect1_foregroundBlur_1_2"/>
</filter>
<linearGradient id="paint0_linear_1_2" x1="137" y1="718" x2="1145" y2="718" gradientUnits="userSpaceOnUse">
<stop stop-color="#0D1012"/>
<stop offset="0.0295345" stop-color="#CAD4DB"/>
<stop offset="0.0625" stop-color="#242729"/>
<stop offset="0.133609" stop-color="#A3ACB1"/>
<stop offset="0.865967" stop-color="#A3ACB1"/>
<stop offset="0.941937" stop-color="#242729"/>
<stop offset="0.971275" stop-color="#CAD4DB"/>
<stop offset="0.996436" stop-color="#0D1012"/>
</linearGradient>
<linearGradient id="paint1_linear_1_2" x1="641" y1="721" x2="641" y2="733" gradientUnits="userSpaceOnUse">
<stop stop-color="#7A7F83"/>
<stop offset="1" stop-color="#0B0B0E"/>
</linearGradient>
<linearGradient id="paint2_linear_1_2" x1="574.5" y1="718.643" x2="711.5" y2="718.643" gradientUnits="userSpaceOnUse">
<stop stop-color="#3C3C3C"/>
<stop offset="0.317518" stop-color="#3C3C3C" stop-opacity="0"/>
<stop offset="0.660584" stop-color="#3C3C3C" stop-opacity="0"/>
<stop offset="1" stop-color="#444444"/>
</linearGradient>
</defs>
</svg>
