<svg width="17" height="19" viewBox="0 0 17 19" fill="none" xmlns="http://www.w3.org/2000/svg">
<path d="M0.614258 17.1992V2.28906C0.614258 1.75195 0.746745 1.35807 1.01172 1.10742C1.27669 0.849609 1.5918 0.720703 1.95703 0.720703C2.2793 0.720703 2.60872 0.813802 2.94531 1L15.46 8.31543C15.904 8.57324 16.2119 8.80599 16.3838 9.01367C16.5628 9.21419 16.6523 9.45768 16.6523 9.74414C16.6523 10.0234 16.5628 10.2669 16.3838 10.4746C16.2119 10.6823 15.904 10.915 15.46 11.1729L2.94531 18.4883C2.60872 18.6745 2.2793 18.7676 1.95703 18.7676C1.5918 18.7676 1.27669 18.6387 1.01172 18.3809C0.746745 18.123 0.614258 17.7292 0.614258 17.1992Z" fill="#007AFF"/>
</svg>
